<?xml version="1.0" encoding="UTF-8"?>
<svg width="115px" height="63px" viewBox="0 0 115 63" version="1.1" xmlns="http://www.w3.org/2000/svg" xmlns:xlink="http://www.w3.org/1999/xlink">
    <title>Logos/Photos</title>
    <defs>
        <path d="M0.949605585,35.3352718 C0.689606502,35.3466808 0.432938457,35.2732016 0.218199947,35.1258845 C0.0480530099,34.9223035 -0.0278980776,34.6559476 0.00922690718,34.3930287 L0.00922690718,9.47593182 C-0.0278980776,9.21301287 0.0480530099,8.94665701 0.218199947,8.74307603 C0.432938457,8.59575886 0.689606502,8.52227974 0.949605585,8.53368866 L3.61401184,8.53368866 C3.86344476,8.50576833 4.11372311,8.57835346 4.30970912,8.73545314 C4.50569512,8.89255281 4.63130891,9.1212776 4.65887704,9.37123813 L4.92009334,10.3658281 C5.70918599,9.6239812 6.63084637,9.03792166 7.63674285,8.63838234 C8.66666742,8.22424515 9.76606126,8.01103736 10.875825,8.01022024 C13.0978992,7.90135052 15.2298603,8.90085139 16.5703403,10.6799092 C17.9809083,12.4597018 18.6600707,14.8153097 18.6600707,17.8514266 C18.7081396,19.7034923 18.3515256,21.5436961 17.6152055,23.2431513 C17.0113194,24.6622375 16.0367365,25.8919234 14.7940695,26.8027366 C13.580899,27.6386777 12.1390871,28.077565 10.6668519,28.0590608 C9.67273869,28.0602541 8.68490841,27.9011809 7.74122937,27.5879392 C6.8773864,27.2902685 6.07909986,26.8281218 5.39028267,26.2269213 L5.39028267,34.3930287 C5.4454151,34.6485309 5.38833085,34.9154522 5.23355289,35.1258845 C5.01881438,35.2732016 4.76214634,35.3466808 4.50214726,35.3352718 L0.949605585,35.3352718 Z M9.09955413,23.9236602 C10.2993659,24.0047714 11.4588725,23.4730977 12.1819065,22.5102955 C12.8610688,21.5680524 13.1745284,20.0499939 13.1745284,18.0084671 C13.1745284,15.9669402 12.8610688,14.4488818 12.1819065,13.5066387 C11.5027441,12.5643955 10.5101221,12.0932739 9.09955413,12.0932739 C7.8149079,12.1000802 6.55430659,12.4429218 5.44252593,13.0878639 L5.44252593,22.9290702 C6.537015,23.6146065 7.80934241,23.9606372 9.09955413,23.9236602 L9.09955413,23.9236602 Z M23.2574776,27.5355924 C23.0565545,27.5844224 22.8444981,27.5511572 22.6680832,27.4431343 C22.4916682,27.3351114 22.3653887,27.1612058 22.3170989,26.9597771 L22.3170989,0.94339655 C22.2799739,0.680477604 22.355925,0.414121741 22.5260719,0.21054076 C22.7408104,0.0632235962 22.9974785,-0.0102555291 23.2574776,0.0011533913 L26.8100192,0.0011533913 C27.0700183,-0.0102555291 27.3266864,0.0632235962 27.5414249,0.21054076 C27.6884505,0.425705031 27.7617842,0.682881969 27.7503979,0.94339655 L27.7503979,10.2611344 C29.6753781,8.80127594 32.023346,8.01094158 34.4375352,8.01022024 C36.213806,8.01022024 37.5721308,8.48134182 38.5125094,9.47593182 C39.4528881,10.4705218 39.9753207,11.7791929 39.9753207,13.5589855 L39.9753207,26.7503897 C40.0211757,27.0075418 39.9346096,27.2705333 39.7450718,27.4498962 C39.555534,27.629259 39.2885485,27.7008394 39.034942,27.640286 L35.4824004,27.640286 C35.2742837,27.6848486 35.0570264,27.6432683 34.879953,27.5249854 C34.7028797,27.4067024 34.5810133,27.2217519 34.5420217,27.0121239 L34.5420217,15.1293908 C34.6085799,14.3199507 34.3658232,13.5153942 33.8628593,12.8784766 C33.3127062,12.364612 32.57609,12.0996614 31.8253722,12.1456208 C30.3742792,12.1601062 28.958618,12.5965579 27.7503979,13.401945 L27.7503979,26.645696 C27.7700423,26.8909501 27.695271,27.1344385 27.5414249,27.326205 C27.3385649,27.4972894 27.0724642,27.573469 26.8100192,27.5355924 L23.2574776,27.5355924 Z M53.0361357,28.2161013 C50.0582699,28.2161013 47.7595664,27.326205 46.0877821,25.5464124 C44.4159978,23.7666197 43.5801056,21.2539713 43.5801056,18.0608139 C43.5801056,14.8676566 44.4159978,12.407355 46.0877821,10.6275623 C47.7595664,8.84776971 50.0582699,7.9578734 53.0361357,7.9578734 C56.0140015,7.9578734 58.3127049,8.84776971 59.9844892,10.6275623 C61.6562736,12.407355 62.4921657,14.8676566 62.4921657,18.0608139 C62.4921657,21.2539713 61.6562736,23.7142729 59.9844892,25.4940655 C58.3127049,27.2738581 55.9617582,28.1637545 53.0361357,28.2161013 Z M53.0361357,24.0283539 C55.6482987,24.0283539 56.9543802,22.0391739 56.9543802,18.1131608 C56.9543802,14.1871476 55.6482987,12.1979676 53.0361357,12.1979676 C50.4239727,12.1979676 49.1178912,14.1871476 49.1178912,18.1131608 C49.1178912,22.0391739 50.4239727,23.9760071 53.0361357,24.0283539 L53.0361357,24.0283539 Z M73.0975475,27.9543763 C71.0078171,27.9543763 69.4405193,27.4832455 68.3956541,26.4886555 C67.3507889,25.4940655 66.8805996,23.9760071 66.8805996,21.8821334 L66.8805996,12.6167423 L64.9475989,12.6167423 C64.504572,12.6719659 64.0941892,12.3749907 64.0072203,11.9362334 L64.0072203,10.1564408 C63.9958339,9.89592618 64.0691676,9.63874925 64.2161933,9.42358498 C64.4019716,9.24693707 64.6406676,9.1365513 64.8953557,9.10950392 L67.0373293,8.63838234 L67.7164917,4.39828813 C67.7204173,4.12213837 67.8330838,3.85872877 68.0299513,3.66543234 C68.2331294,3.49494806 68.4989582,3.41884638 68.7613569,3.45604497 L71.4257632,3.45604497 C71.6857622,3.44463605 71.9424303,3.51811518 72.1571688,3.66543234 C72.3041945,3.88059661 72.3775282,4.13777355 72.3661418,4.39828813 L72.3661418,8.63838234 L76.5978459,8.63838234 C76.857845,8.62697342 77.114513,8.70045255 77.3292515,8.84776971 C77.4762772,9.06293398 77.5496109,9.32011092 77.5382246,9.5806255 L77.5382246,11.726846 C77.5496109,11.9873606 77.4762772,12.2445375 77.3292515,12.4597018 C77.1260734,12.6301861 76.8602446,12.7062878 76.5978459,12.6690892 L72.3661418,12.6690892 L72.3661418,21.6203992 C72.3059904,22.2358727 72.5157062,22.8471645 72.9408177,23.2954981 C73.5432138,23.688534 74.2649367,23.8554157 74.9783048,23.7666197 C75.3633395,23.7577245 75.747333,23.7227468 76.1276565,23.661926 C76.4024774,23.6013237 76.6822959,23.5662771 76.9635487,23.5572324 C77.3814948,23.5572324 77.5904678,23.8189666 77.5904678,24.3947818 L77.5904678,26.2269213 C77.6020915,26.5369999 77.5298898,26.8444651 77.3814948,27.1168176 C77.2279652,27.3159265 77.0031219,27.4473452 76.7545757,27.4832455 C75.5608992,27.7974203 74.331718,27.9557712 73.0975475,27.9543763 Z M88.8227687,28.2161013 C85.8449029,28.2161013 83.5461995,27.326205 81.8744151,25.5464124 C80.2026308,23.7666197 79.3667387,21.2539713 79.3667387,18.0608139 C79.3667387,14.8676566 80.2026308,12.407355 81.8744151,10.6275623 C83.5461995,8.84776971 85.8449029,7.9578734 88.8227687,7.9578734 C91.8006345,7.9578734 94.0993379,8.84776971 95.7711223,10.6275623 C97.4429066,12.407355 98.2787987,14.9200034 98.2787987,18.0608139 C98.2787987,21.2016245 97.4429066,23.7142729 95.7711223,25.4940655 C94.0993379,27.2738581 91.8006345,28.1637545 88.8227687,28.2161013 Z M88.8227687,24.0283539 C91.4349317,24.0283539 92.7410132,22.0391739 92.7410132,18.1131608 C92.7410132,14.1871476 91.4349317,12.1979676 88.8227687,12.1979676 C86.2106057,12.1979676 84.9045242,14.1871476 84.9045242,18.1131608 C84.9045242,22.0391739 86.2106057,23.9760071 88.8227687,24.0283539 L88.8227687,24.0283539 Z M107.421369,28.2684481 C105.377506,28.3071314 103.348365,27.9147663 101.465638,27.1168176 C101.208862,27.0090909 100.977493,26.8485948 100.786475,26.645696 C100.684305,26.3965016 100.631089,26.1298931 100.629745,25.8604934 L100.629745,24.1853945 C100.629745,23.6095792 100.838718,23.347845 101.256665,23.347845 C101.43493,23.3573677 101.610889,23.3926293 101.779097,23.4525387 C102.659037,23.7606987 103.570021,23.9713425 104.495747,24.0807008 C105.446068,24.230385 106.40719,24.3004233 107.369126,24.2900881 C109.145397,24.2900881 110.033532,23.661926 110.033532,22.4056018 C110.055608,21.9808543 109.904796,21.5652993 109.615586,21.2539713 C109.099068,20.8557555 108.515019,20.5542849 107.891559,20.364075 L104.965936,19.2124445 C103.698192,18.7757828 102.564479,18.0184753 101.674611,17.0138771 C100.981337,16.0387153 100.632073,14.8599128 100.681989,13.6636792 C100.639942,12.0475598 101.403911,10.5165932 102.719476,9.5806255 C104.077801,8.53368866 105.854071,8.01022024 108.152775,8.01022024 C109.846079,8.01678779 111.525389,8.31789158 113.115885,8.90011655 C113.369564,8.95672709 113.593082,9.10603465 113.742804,9.31889129 C113.899005,9.5681182 113.955017,9.86744423 113.899533,10.1564408 L113.899533,11.7791929 C113.899533,12.3550081 113.69056,12.6167423 113.272614,12.6167423 C112.919755,12.5722035 112.570561,12.5022262 112.227749,12.407355 C111.051196,12.0965501 109.839719,11.938218 108.622964,11.9362334 C107.85683,11.8999757 107.091603,12.0247945 106.376504,12.3026613 C105.913769,12.5206769 105.625834,12.9946509 105.645098,13.5066387 C105.638924,13.8976064 105.789474,14.2747272 106.063044,14.5535755 C106.614698,14.9694625 107.233056,15.2881053 107.891559,15.4958187 L110.712695,16.6474492 C111.967336,17.0847016 113.096941,17.821299 114.00402,18.7936697 C114.688285,19.7136675 115.038483,20.8402164 114.996642,21.9868271 C115.048067,23.7190304 114.271777,25.3719163 112.906912,26.4363087 C111.548587,27.6926329 109.720073,28.2684481 107.421369,28.2684481 Z M98.6967448,49.1548382 C87.5689305,57.4256392 71.3735199,61.7704271 57.4768128,61.7704271 C38.8763336,61.8826106 20.908512,55.0099257 7.11431025,42.5067892 C6.06944505,41.564546 7.00982373,40.255875 8.26366197,40.9887308 C22.6305584,49.3642255 40.3410235,54.3895224 58.6784077,54.3895224 C71.8927474,54.3454951 84.9653054,51.6581717 97.129447,46.4851492 C98.9579611,45.7522934 100.525259,47.7938203 98.6967448,49.1548382 Z M103.346395,43.8678071 C101.935827,42.0356676 93.9426082,42.9779108 90.3378232,43.4490324 C89.2407148,43.553726 89.083985,42.6114829 90.0766069,41.9309739 C96.4502846,37.4291455 106.898937,38.7378166 108.152775,40.255875 C109.406613,41.7739334 107.839315,52.2956487 101.83134,57.2685987 C100.890962,58.0538013 100.05507,57.6350266 100.420772,56.5880897 C101.726854,53.2378918 104.756963,45.6999466 103.346395,43.8678071 L103.346395,43.8678071 Z" id="path-1"></path>
    </defs>
    <g id="Vanilla---iOS" stroke="none" stroke-width="1" fill="none" fill-rule="evenodd">
        <g id="Cooper-Onboarding-1-Copy-2" transform="translate(-130.000000, -356.000000)">
            <g id="Logos/Photos" transform="translate(130.000000, 356.682209)">
                <mask id="mask-2" fill="white">
                    <use xlink:href="#path-1"></use>
                </mask>
                <g id="Shape"></g>
                <rect id="↳-icon-tint" fill="#111111" mask="url(#mask-2)" x="0" y="0" width="115" height="61.7717791"></rect>
            </g>
        </g>
    </g>
</svg>