<?xml version="1.0" encoding="utf-8"?>
<svg version="1.1" width="775" height="458" viewBox="0 0 775 458"
	xmlns="http://www.w3.org/2000/svg"
	xmlns:xlink="http://www.w3.org/1999/xlink"
	xml:space="preserve">
	<style type="text/css">
		line, polyline{
			fill: none;
			stroke: #000;
			stroke-width: 3;
			stroke-miterlimit: 10;
		}
		text, tspan{
			font-size: 20px;
			font-family: "Liberation Mono", sans-serif;
			font-weight: bold;
			text-anchor: middle;
		}
		.thin{
			stroke-width: 2;
		}
	</style>
	<defs>
		<g id="arrow">
			<circle r="4.5"/>
			<line y1="9" y2="38"/>
			<polyline points="-9.3,29 0,38.5 9.3,29"/>
		</g>
	</defs>
	<g id="left">
		<g>
			<text x="104" y="37">Deterministic</text>
			<line class="thin" x1="25" y1="44.3" x2="183" y2="44.3"/>
		</g>
		<g id="left-range">
			<g>
				<line class="thin" x1="9"  y1="70" x2="37" y2="70"/>
				<line class="thin" x1="23" y1="76" x2="23" y2="235"/>
				<polygon points="23,69 16.5,82 29.5,82"/>
			</g>
			<text x="30" y="266">f(n)</text>
			<g>
				<line class="thin" x1="37" y1="432" x2="9"  y2="432"/>
				<line class="thin" x1="23" y1="426" x2="23" y2="285"/>
				<polygon points="23,433 29.6,420 16.6,420"/>
			</g>
		</g>
		<g id="left-tree">
			<use xlink:href="#arrow" x="110" y="70"/>
			<use xlink:href="#arrow" x="110" y="127"/>
			<use xlink:href="#arrow" x="110" y="183"/>
			<text x="111" y="273">...</text>
			<use xlink:href="#arrow" x="110" y="318"/>
			<use xlink:href="#arrow" x="110" y="377"/>
			<circle cx="109" cy="429.8" r="4.5"/>
			<line x1="151.8" y1="407.6" x2="118" y2="426.2"/>
			<text>
				<tspan style="text-anchor: start" x="157" y="408">accept or</tspan>
				<tspan style="text-anchor: start" x="157" y="432">reject</tspan>
			</text>
		</g>
	</g>
	<line class="thin" x1="339" y1="6" x2="339" y2="444.1"/>
	<g id="right">
		<text x="549" y="37">Non-Deterministic</text>
		<line class="thin" x1="444" y1="44.3" x2="653" y2="44.3"/>
		<g id="right-range">
			<g>
				<line class="thin" x1="354" y1="71" x2="382" y2="71"/>
				<line class="thin" x1="368" y1="77" x2="368" y2="236"/>
				<polygon points="368,70 361.5,83 374.5,83"/>
			</g>
			<text x="374" y="268">f(n)</text>
			<g>
				<line class="thin" x1="382" y1="393" x2="354" y2="393"/>
				<line class="thin" x1="368" y1="387" x2="368" y2="286"/>
				<polygon points="368,394 374.6,381 361.6,381"/>
			</g>
		</g>
		<g id="right-tree">
			<text x="450" y="163" style="text-anchor: end">accept</text>
			<line class="thin" x1="455" y1="158" x2="470.5" y2="158"/>
			<g>
				<circle cx="484" cy="159" r="4.5"/>
				<g>
					<line x1="509.4" y1="124" x2="490" y2="144"/>
					<polygon points="486.5,147.5 497.5,145.7 488.3,136.5"/>
				</g>
				<circle cx="519" cy="114" r="4.5"/>
				<g>
					<line x1="547.4" y1="83" x2="528" y2="103"/>
					<polygon points="524.5,106.5 535.5,104.7 526.3,95.5"/>
				</g>
				<circle cx="557" cy="76" r="4.5"/>
			</g>
			<g>
				<g>
					<line x1="566.5" y1="83" x2="585.8" y2="103"/>
					<polygon points="589.4,106.5 578.4,104.7 587.6,95.5"/>
				</g>
				<circle cx="596" cy="114" r="4.5"/>
				<g>
					<line x1="608.5" y1="124" x2="627.8" y2="144"/>
					<polygon points="631.4,147.5 620.4,145.7 629.6,136.5"/>
				</g>
				<circle cx="642" cy="159" r="4.5"/>
				<g>
					<line x1="596.2" y1="122.5" x2="596.2" y2="150.7"/>
					<polyline points="604.2,142.7 596.2,150.7 588.2,142.7"/>
				</g>
				<circle cx="597" cy="159" r="4.5"/>
				<g>
					<line x1="581.4" y1="124" x2="562.1" y2="144"/>
					<polygon points="558.5,147.5 569.5,145.7 560.3,136.5"/>
				</g>
				<circle cx="557" cy="159" r="4.5"/>
				<g>
					<line x1="542.4" y1="169" x2="523.1" y2="189"/>
					<polygon points="519.5,192.5 530.5,190.7 521.3,181.5"/>
				</g>
				<circle cx="516" cy="207" r="4.5"/>
				<g>
					<line x1="557.2" y1="169.5" x2="557.2" y2="197.7"/>
					<polyline points="565.2,189.7 557.2,197.7 549.2,189.7"/>
				</g>
				<circle cx="557" cy="207" r="4.5"/>
				<g>
					<line x1="569.5" y1="171" x2="588.8" y2="191"/>
					<polygon points="592.4,194.5 581.4,192.7 590.6,183.5"/>
				</g>
				<circle cx="601" cy="207" r="4.5"/>
			</g>
			<text x="561" y="261">...</text>
			<g>
				<g>
					<line x1="616.5" y1="281" x2="635.8" y2="301"/>
					<polygon points="639.4,304.5 628.4,302.7 637.6,293.5"/>
				</g>
				<circle cx="650" cy="316" r="4.5"/>
				<line class="thin" x1="661.2" y1="316" x2="688.7" y2="316"/>
				<text x="697" y="321" style="text-anchor: start">reject</text>
			</g>
			<g>
				<g>
					<line x1="536.4" y1="356" x2="517" y2="376"/>
					<polygon points="513.5,379.5 524.5,377.7 515.3,368.5"/>
				</g>
				<circle cx="507" cy="391" r="4.5"/>
				<line class="thin" x1="518.7" y1="391" x2="556.2" y2="391"/>
				<text x="560" y="399" style="text-anchor: start">accept</text>
			</g>
		</g>
	</g>
</svg>
